<svg height="512" viewBox="0 0 58 58" width="512" xmlns="http://www.w3.org/2000/svg"><g id="Page-1" fill="none" fill-rule="evenodd"><g id="048---Link" fill="rgb(0,0,0)" fill-rule="nonzero"><path id="Shape" d="m2.64 38.39c-1.69018121 1.6869992-2.63998308 3.9769718-2.63998308 6.365s.94980187 4.6780008 2.63998308 6.365l4.24 4.24c1.68699919 1.6901812 3.9769718 2.6399831 6.365 2.6399831s4.6780008-.9498019 6.365-2.6399831l18.25-18.25c1.2209319-1.2149134 2.0647794-2.7567581 2.43-4.44l.07-.38c.014-.082.021-.165.033-.247.022-.151.047-.3.061-.452.028-.281.046-.563.046-.841.0122778-1.3366193-.28552-2.6578831-.87-3.86-.0706915-.1630707-.1542905-.3202367-.25-.47l-.42-.71-.1-.15c-.2940094-.4250379-.6289416-.8202579-1-1.18l-4.24-4.24c-.2353654-.2391942-.4858833-.4629902-.75-.67l-4.59 4.58c.6854725.1785872 1.310513.5377265 1.81 1.04l2.82 2.82c1.0857159 1.0828963 1.4549753 2.69209.95 4.14-.0810275.2522493-.1918076.4939513-.33.72-.1678168.29463-.376561.5639773-.62.8l-5.28 5.29-1.61 1.6-9.95 9.95c-.7489618.7535722-1.767543 1.1773145-2.83 1.1773145s-2.0810382-.4237423-2.83-1.1773145l-2.82-2.82c-.75357224-.7489618-1.17731445-1.767543-1.17731445-2.83s.42374221-2.0810382 1.17731445-2.83l10.07-10.08c-.1271114-.2126248-.2406706-.4330633-.34-.66-.9828793-2.044599-1.2977376-4.3465628-.9-6.58z"/><path id="Shape" d="m51.12 2.64c-1.6869992-1.69018121-3.9769718-2.63998308-6.365-2.63998308s-4.6780008.94980187-6.365 2.63998308l-16.08 16.09-1.42 1.41c-2.6993824 2.6909166-3.4014173 6.7948117-1.75 10.23.2863448.6248117.6527525 1.2097193 1.09 1.74.2035326.2640236.4239965.5145508.66.75l4.25 4.25c.2379319.2364858.4882863.4601357.75.67l4.58-4.58c-.6791204-.1868993-1.2988976-.5449928-1.8-1.04l-2.83-2.83c-.4912387-.5000508-.8488679-1.1155856-1.04-1.79-.2649458-1.0401185-.1105128-2.1426982.43-3.07.1675153-.2921675.3725945-.5611238.61-.8l5.29-5.29 1.48-1.48 9.32-9.31c.7489618-.75357224 1.767543-1.17731445 2.83-1.17731445s2.0810382.42374221 2.83 1.17731445l2.82 2.82c.7535722.7489618 1.1773145 1.767543 1.1773145 2.83s-.4237423 2.0810382-1.1773145 2.83l-9.31 9.32c.1218686.2035662.2320469.4139066.33.63.9866507 2.0577295 1.3014904 4.3735504.9 6.62l13.03-13.03c1.6901812-1.6869992 2.6399831-3.9769718 2.6399831-6.365s-.9498019-4.67800081-2.6399831-6.365z"/></g></g></svg>